/* XPM */
static char *_fca2a5b65b8412d80499134a19ce8b1[] = {
/* columns rows colors chars-per-pixel */
"16 16 89 1 ",
"  c None",
". c #05AB94",
"X c #00AD97",
"o c #00B39D",
"O c #12B8A5",
"+ c #17BAA7",
"@ c #19BAA7",
"# c #1FBCAA",
"$ c #20BCAA",
"% c #22BDAB",
"& c #23BDAB",
"* c #27BDAA",
"= c #34BDAB",
"- c #36BFAD",
"; c #2CC0AF",
": c #30C1B0",
"> c #34C3B2",
", c #3CC3B2",
"< c #3EC5B5",
"1 c #45C7B7",
"2 c #45C8B8",
"3 c #47C8B9",
"4 c #4AC9BA",
"5 c #4CCABB",
"6 c #4DCABB",
"7 c #4DCABC",
"8 c #4ECABC",
"9 c #56C9BA",
"0 c #51CABC",
"q c #55CCBE",
"w c #56CDBF",
"e c #57CDBF",
"r c #58CABB",
"t c #5DCFC1",
"y c #5ECFC2",
"u c #66CFC2",
"i c #64D0C4",
"p c #66D1C5",
"a c #68D2C5",
"s c #6AD2C5",
"d c #6ED2C6",
"f c #72D6CB",
"g c #75D4C8",
"h c #77D7CC",
"j c #79D5C9",
"k c #7CD6CA",
"l c #78D7CC",
"z c #79D7CC",
"x c #7BD8CD",
"c c #81D9CF",
"v c #84DAD0",
"b c #96DFD5",
"n c #98E0D8",
"m c #99E0D8",
"M c #9AE1D9",
"N c #A4E4DC",
"B c #A5E4DD",
"V c #A6E4DD",
"C c #ADE7E0",
"Z c #B0E7E1",
"A c #B8EAE4",
"S c #BCEBE6",
"D c #C0ECE7",
"F c #C5EDE9",
"G c #CCF0EC",
"H c #CDF0EC",
"J c #D0F1ED",
"K c #D4F2EF",
"L c #D9F4F0",
"P c #DBF4F1",
"I c #DDF5F2",
"U c #E1F5F3",
"Y c #E7F9F7",
"T c #E9F8F7",
"R c #E9F9F7",
"E c #EDFAF8",
"W c #EEFAF8",
"Q c #EFFAF9",
"! c #F0FBFA",
"~ c #F2FBFA",
"^ c #F3FCFB",
"/ c #F6FCFB",
"( c #F8FDFD",
") c #F9FDFD",
"_ c #FAFDFD",
"` c #FBFEFE",
"' c #FDFFFE",
"] c #FEFFFF",
"[ c white",
/* pixels */
"     [[E~[[     ",
"   [[[[tw[[[[   ",
"  [[[[^;oP[[[[  ",
" [[[[[Z&+y[[[[[ ",
" [[[[]c:8@D[[[[ ",
"[[[[/An4p<6`[[[[",
"[[[[MzICGHxV[[[[",
"[[[W>a)[[RDF'[[[",
"[[[l#iS[[N5fY[[[",
"[[KO37qT(he*r![[",
"[Q%X$2mDd,-=.1^[",
" J0vBLUbjkgsu9L ",
" [[[[[_[[[[[[[[ ",
"  [[[[[[[[[[[[  ",
"   [[[[[[[[[[   ",
"     [[[[[[     "
};
