/* XPM */
static char *_a54920853814be9c7d8d81bee2c6023[] = {
/* columns rows colors chars-per-pixel */
"32 32 101 2 ",
"   c None",
".  c #009173",
"X  c #009C82",
"o  c #00A086",
"O  c #00A48B",
"+  c #0AA68E",
"@  c #0AAD96",
"#  c #12AA93",
"$  c #1BAE97",
"%  c #15AE98",
"&  c #1BB19B",
"*  c #21AA92",
"=  c #22AF99",
"-  c #2CAE98",
";  c #31AE98",
":  c #24B29D",
">  c #2CB29D",
",  c #34B59F",
"<  c #39B09B",
"1  c #22B6A1",
"2  c #2FB7A3",
"3  c #29B9A6",
"4  c #36B6A2",
"5  c #3DB9A5",
"6  c #34BBA9",
"7  c #3EBCAA",
"8  c #42B5A1",
"9  c #45B9A6",
"0  c #44BDAB",
"q  c #4CBEAC",
"w  c #54B9A5",
"e  c #53BEAC",
"r  c #58BEAC",
"t  c #3DC0AE",
"y  c #4DC0AF",
"u  c #51C1AF",
"i  c #43C2B1",
"p  c #4DC3B2",
"a  c #52C2B1",
"s  c #5CC5B5",
"d  c #5CC7B9",
"f  c #5BC9BA",
"g  c #65C5B5",
"h  c #6BC5B5",
"j  c #65CABB",
"k  c #6BCBBC",
"l  c #71C5B6",
"z  c #76C6B8",
"x  c #7AC7B9",
"c  c #75CBBD",
"v  c #79CCBD",
"b  c #6DCFC1",
"n  c #74CFC1",
"m  c #7BCEC1",
"M  c #66D1C4",
"N  c #7DD1C4",
"B  c #7BD4C8",
"V  c #81CBBD",
"C  c #84CEC1",
"Z  c #81D1C4",
"A  c #89D2C6",
"S  c #84D6CB",
"D  c #8BD5CA",
"F  c #84D8CD",
"G  c #93D6CA",
"H  c #9AD6CB",
"J  c #94D9CE",
"K  c #9DD8CE",
"L  c #8EDCD1",
"P  c #93DCD2",
"I  c #9BDDD3",
"U  c #A4D9CE",
"Y  c #A2DDD4",
"T  c #ADDFD7",
"R  c #9EE2DA",
"E  c #A7E0D7",
"W  c #AFE0D7",
"Q  c #A3E4DD",
"!  c #ACE3DC",
"~  c #B2E6DE",
"^  c #BCE6DF",
"/  c #BDEBE5",
"(  c #C2E5DE",
")  c #C3E7E1",
"_  c #C5EAE4",
"`  c #CFEDE7",
"'  c #C4EDE9",
"]  c #CFEFEA",
"[  c #D4EEE9",
"{  c #CAF0EC",
"}  c #D5F1ED",
"|  c #DBF1ED",
" . c #DCF5F2",
".. c #E1F5F3",
"X. c #EAF7F5",
"o. c #E4F8F7",
"O. c #E9F9F7",
"+. c #E4FAF9",
"@. c #EDFBF9",
"#. c #F5FCFB",
"$. c #FFFFFF",
/* pixels */
"                        $.$.$.$.$.$.$.$.                        ",
"                  $.$.$.$.$.$.D E $.$.$.$.$.$.                  ",
"              $.$.$.$.$.$.$.$.O # $.$.$.$.$.$.$.$.              ",
"            $.$.$.$.$.$.$.$.H q X Y $.$.$.$.$.$.$.$.            ",
"          $.$.$.$.$.$.$.$.$.4 4 s O #.$.$.$.$.$.$.$.$.          ",
"        $.$.$.$.$.$.$.$.$.P q 5 g $ j $.$.$.$.$.$.$.$.$.        ",
"      $.$.$.$.$.$.$.$.$.$.D * c 9 g + | $.$.$.$.$.$.$.$.$.      ",
"    $.$.$.$.$.$.$.$.$.#.+.h r e g s 5 9 $.$.$.$.$.$.$.$.$.$.    ",
"    $.$.$.$.$.$.$.$.$.' _ h w l h g h - T $.$.$.$.$.$.$.$.$.    ",
"  $.$.$.$.$.$.$.$.$...P | r g h z l h u 9 #.$.$.$.$.$.$.$.$.$.  ",
"  $.$.$.$.$.$.$.$.$.A P } g z h l c g k , G $.$.$.$.$.$.$.$.$.  ",
"  $.$.$.$.$.$.$.$.[ 0 ~ | h x v z c c h j 8 | $.$.$.$.$.$.$.$.  ",
"$.$.$.$.$.$.$.$.$.k a ! #.G m A D Z N v c e n $.$.$.$.$.$.$.$.$.",
"$.$.$.$.$.$.$.$.^ 4 n P $./ R  . ... .' I c 9 _ $.$.$.$.$.$.$.$.",
"$.$.$.$.$.$.$.$.e a c B ..#.@.$.$.$.#.O.$.O.S j #.$.$.$.$.$.$.$.",
"$.$.$.$.$.$.$.J = b n S ! $.$.$.$.$./ N C ( $.~ E $.$.$.$.$.$.$.",
"$.$.$.$.$.$.#., p a k D L  .$.$.$.$./ c h w h }  .O.$.$.$.$.$.$.",
"$.$.$.$.$.$.h : B f s B F P #.$.$.#.P C V h u 8 K $.$.$.$.$.$.$.",
"$.$.$.$.$...# y e n k b B S Q ' $.' Z V h a h d 8 U #.$.$.$.$.$.",
"$.$.$.$.$.5 2 k 0 e k b m n b #. .D A c g s 0 h f < [ $.$.$.$.$.",
"  $.$.$._ X d a k 7 p f e A X.@.J c n c k j y q i t ; | $.$.$.  ",
"  $.$.$.% 6 y 0 s 7 : d / #...S m n k j j M c g i i 4 Z $.$.$.  ",
"  $.$.v . a = q q G Y | } B a p y 7 3 1 : > 4 4 1 & @ . A $.$.  ",
"    $.Y T ) ^ | X.$.$.' ~ ~ W I I I P P P J J J K I Y J W $.    ",
"    $.$.$.$.$.$.$.$.$.$.$.$.$.$.$.$.$.$.$.$.$.$.$.$.$.$.$.$.    ",
"      $.$.$.$.$.$.$.$.$.$.$.$.$.$.$.$.$.$.$.$.$.$.$.$.$.$.      ",
"        $.$.$.$.$.$.$.$.$.$.$.$.$.$.$.$.$.$.$.$.$.$.$.$.        ",
"          $.$.$.$.$.$.$.$.$.$.$.$.$.$.$.$.$.$.$.$.$.$.          ",
"            $.$.$.$.$.$.$.$.$.$.$.$.$.$.$.$.$.$.$.$.            ",
"              $.$.$.$.$.$.$.$.$.$.$.$.$.$.$.$.$.$.              ",
"                  $.$.$.$.$.$.$.$.$.$.$.$.$.$.                  ",
"                        $.$.$.$.$.$.$.$.                        "
};
