/* XPM */
static char *_bdcc1ee9f2a48018d1bf586d8091cea[] = {
/* columns rows colors chars-per-pixel */
"64 64 154 2 ",
"   c None",
".  c #008867",
"X  c #008D6E",
"o  c #008F71",
"O  c #009273",
"+  c #009679",
"@  c #00997D",
"#  c #009D82",
"$  c #00A086",
"%  c #08A186",
"&  c #00A48B",
"*  c #0AA48B",
"=  c #12A48A",
"-  c #01AA92",
";  c #0CAB93",
":  c #02AE98",
">  c #09AE98",
",  c #17AD97",
"<  c #1BAD96",
"1  c #10AF99",
"2  c #1CAF99",
"3  c #05B09A",
"4  c #0CB29D",
"5  c #14B29C",
"6  c #1BB19C",
"7  c #27A68E",
"8  c #22AD96",
"9  c #26AF98",
"0  c #2BAF99",
"q  c #22B39D",
"w  c #2AB29C",
"e  c #32B29C",
"r  c #17B6A3",
"t  c #1BB6A1",
"y  c #1BB8A3",
"u  c #1EBCA8",
"i  c #22B6A2",
"p  c #2AB7A2",
"a  c #23B9A6",
"s  c #29B9A5",
"d  c #21BAA8",
"f  c #2BBFAE",
"g  c #34B6A2",
"h  c #3BB5A0",
"j  c #33B9A6",
"k  c #3EBAA7",
"l  c #34BCAA",
"z  c #3CBDAB",
"x  c #42B19C",
"c  c #4AB39E",
"v  c #43B6A1",
"b  c #44BAA6",
"n  c #4DBAA7",
"m  c #43BEAC",
"M  c #4BBDAA",
"N  c #55B8A3",
"B  c #58BAA7",
"V  c #54BEAC",
"C  c #5BBEAC",
"Z  c #62BDAB",
"A  c #30C0AF",
"S  c #32C1B1",
"D  c #3CC3B2",
"F  c #44C1AF",
"G  c #4BC0AE",
"H  c #54C0AF",
"J  c #5CC0AE",
"K  c #43C3B2",
"L  c #4CC3B3",
"P  c #4DC7B8",
"I  c #54C4B4",
"U  c #5DC5B5",
"Y  c #57C7B9",
"T  c #5DC7B9",
"R  c #55C9B9",
"E  c #5ECABB",
"W  c #63C4B4",
"Q  c #6BC6B6",
"!  c #66C7B8",
"~  c #6CC7B8",
"^  c #64CBBC",
"/  c #6CCBBD",
"(  c #75C4B4",
")  c #70C7B8",
"_  c #72CBBD",
"`  c #7ACBBD",
"'  c #66CEC0",
"]  c #6DCFC1",
"[  c #74CEC1",
"{  c #7DCEC1",
"}  c #6CD1C3",
"|  c #74D1C4",
" . c #7CD2C5",
".. c #77D5C9",
"X. c #7BD5C9",
"o. c #85CBBD",
"O. c #84CFC1",
"+. c #88CEC0",
"@. c #83D2C5",
"#. c #8BD2C5",
"$. c #84D5CA",
"%. c #8BD5CA",
"&. c #85D8CE",
"*. c #8CD9CE",
"=. c #92D2C5",
"-. c #92D5CA",
";. c #9AD6CC",
":. c #94D9CE",
">. c #9AD9CE",
",. c #86DCD2",
"<. c #8CDBD2",
"1. c #93DCD3",
"2. c #9CDDD3",
"3. c #A1D6CC",
"4. c #A2DDD3",
"5. c #AADED5",
"6. c #B0DFD6",
"7. c #9BE0D7",
"8. c #9CE1D9",
"9. c #A3E0D7",
"0. c #AAE0D7",
"q. c #A5E2DB",
"w. c #ABE4DC",
"e. c #B4E4DD",
"r. c #BAE5DE",
"t. c #AFE7E0",
"y. c #AEE8E1",
"u. c #B0E7E0",
"i. c #BBE6E0",
"p. c #B5E9E3",
"a. c #BBEAE4",
"s. c #BEEEE9",
"d. c #C4E5DE",
"f. c #C1E7E0",
"g. c #C3EAE4",
"h. c #CCEBE6",
"j. c #C4EEE9",
"k. c #CBEEEA",
"l. c #D3EDE8",
"z. c #DBEFEA",
"x. c #CCF1EC",
"c. c #D2F2EE",
"v. c #DBF2EE",
"b. c #D3F3F0",
"n. c #DDF5F2",
"m. c #E0F2EE",
"M. c #E2F6F3",
"N. c #ECF7F4",
"B. c #E5F9F7",
"V. c #EBF9F7",
"C. c #E6FAF8",
"Z. c #EDFAF9",
"A. c #F4FBFA",
"S. c #FFFFFF",
/* pixels */
"                                                    S.S.S.S.S.S.S.S.S.S.S.S.                                                    ",
"                                            S.S.S.S.S.S.S.S.S.S.S.S.S.S.S.S.S.S.S.S.                                            ",
"                                        S.S.S.S.S.S.S.S.S.S.S.2.r.S.S.S.S.S.S.S.S.S.S.S.                                        ",
"                                  S.S.S.S.S.S.S.S.S.S.S.S.S.S.# j S.S.S.S.S.S.S.S.S.S.S.S.S.S.                                  ",
"                                S.S.S.S.S.S.S.S.S.S.S.S.S.S.^ $ & g.S.S.S.S.S.S.S.S.S.S.S.S.S.S.                                ",
"                            S.S.S.S.S.S.S.S.S.S.S.S.S.S.S.S.g & - p S.S.S.S.S.S.S.S.S.S.S.S.S.S.S.S.                            ",
"                          S.S.S.S.S.S.S.S.S.S.S.S.S.S.S.S.@.6.6 : # 2.S.S.S.S.S.S.S.S.S.S.S.S.S.S.S.S.                          ",
"                      S.S.S.S.S.S.S.S.S.S.S.S.S.S.S.S.S.c.+ ^ r.$ : ; A.S.S.S.S.S.S.S.S.S.S.S.S.S.S.S.S.S.                      ",
"                    S.S.S.S.S.S.S.S.S.S.S.S.S.S.S.S.S.S._ # & e.| & & / S.S.S.S.S.S.S.S.S.S.S.S.S.S.S.S.S.S.                    ",
"                  S.S.S.S.S.S.S.S.S.S.S.S.S.S.S.S.S.S.M.r.< & 5 v.g - & v.S.S.S.S.S.S.S.S.S.S.S.S.S.S.S.S.S.S.                  ",
"                S.S.S.S.S.S.S.S.S.S.S.S.S.S.S.S.S.S.S.^ M M.; $ I h.& & F S.S.S.S.S.S.S.S.S.S.S.S.S.S.S.S.S.S.S.                ",
"              S.S.S.S.S.S.S.S.S.S.S.S.S.S.S.S.S.S.S.S.6 O 1.r.& & 2.:.$ & r.S.S.S.S.S.S.S.S.S.S.S.S.S.S.S.S.S.S.S.              ",
"              S.S.S.S.S.S.S.S.S.S.S.S.S.S.S.S.S.S.S.S. .$ $ r.:.# ; l.m # i S.S.S.S.S.S.S.S.S.S.S.S.S.S.S.S.S.S.S.              ",
"            S.S.S.S.S.S.S.S.S.S.S.S.S.S.S.S.S.S.S.S.1.-.3.# & M.[ O z z.> @ :.S.S.S.S.S.S.S.S.S.S.S.S.S.S.S.S.S.S.S.            ",
"          S.S.S.S.S.S.S.S.S.S.S.S.S.S.S.S.S.S.S.B.S.z X a.2.+ , N.F O &.0.@ > A.S.S.S.S.S.S.S.S.S.S.S.S.S.S.S.S.S.S.S.          ",
"          S.S.S.S.S.S.S.S.S.S.S.S.S.S.S.S.S.S.C.w.S.i.* + p.4.O g N.q @ g.^ O ^ S.S.S.S.S.S.S.S.S.S.S.S.S.S.S.S.S.S.S.          ",
"        S.S.S.S.S.S.S.S.S.S.S.S.S.S.S.S.S.S.S.7.k.M.{ k.0 + a.2.o U M.$ 6 m., # v.S.S.S.S.S.S.S.S.S.S.S.S.S.S.S.S.S.S.S.        ",
"      S.S.S.S.S.S.S.S.S.S.S.S.S.S.S.S.S.S.S.v.| S.v.O h n.n O a.5.X $.g.O ^ i.+ l S.S.S.S.S.S.S.S.S.S.S.S.S.S.S.S.S.S.S.S.      ",
"      S.S.S.S.S.S.S.S.S.S.S.S.S.S.S.S.S.S.S. .*.A.A.p.= = n._ O s.>.X 9.2.X e.| X e.S.S.S.S.S.S.S.S.S.S.S.S.S.S.S.S.S.S.S.      ",
"      S.S.S.S.S.S.S.S.S.S.S.S.S.S.S.S.S.S.g.I s.S.:.x b.W + i.;.+ i.>.o x._ @ n.< ; S.S.S.S.S.S.S.S.S.S.S.S.S.S.S.S.S.S.S.      ",
"    S.S.S.S.S.S.S.S.S.S.S.S.S.S.S.S.S.S.S.W [ y.A.n.V 7 5.5.# #.r.@ e.-.+ M.e g x.O X.S.S.S.S.S.S.S.S.S.S.S.S.S.S.S.S.S.S.S.    ",
"    S.S.S.S.S.S.S.S.S.S.S.S.S.S.S.S.S.S.0.M w.<.S.5.W 3.c ~ r.x W g.= 0.@.% n.& @.$.+ Z.S.S.S.S.S.S.S.S.S.S.S.S.S.S.S.S.S.S.    ",
"  S.S.S.S.S.S.S.S.S.S.S.S.S.S.S.S.S.S.S.e / *.p.S.k.C Z +.) C >.Q C e.w 4._ 0 k.$ g.8 b S.S.S.S.S.S.S.S.S.S.S.S.S.S.S.S.S.S.S.  ",
"  S.S.S.S.S.S.S.S.S.S.S.S.S.S.S.S.S.S.%.m 7.T a.S.k.{ +.( =.@.~ :.` W 4.H 5.W U 7.8 s.@ g.S.S.S.S.S.S.S.S.S.S.S.S.S.S.S.S.S.S.  ",
"  S.S.S.S.S.S.S.S.S.S.S.S.S.S.S.S.S.S.& $.-.&.4.S.A.W o.5.` ` 5.` =.-.Q 4.W 5.C o./ )  .; S.S.S.S.S.S.S.S.S.S.S.S.S.S.S.S.S.S.  ",
"  S.S.S.S.S.S.S.S.S.S.S.S.S.S.S.S.S.! j -.W 4.t.A.S.2.2.@.X.e.@.:.2.&.2._ :.` 5.C >.W >.g @.S.S.S.S.S.S.S.S.S.S.S.S.S.S.S.S.S.  ",
"S.S.S.S.S.S.S.S.S.S.S.S.S.S.S.S.S.B.@ 7.Q ] [ j.M.S.k. .1.u.e.u.j.w.j.a.s.1.2.%.2.W :.Q >.9 N.S.S.S.S.S.S.S.S.S.S.S.S.S.S.S.S.  ",
"S.S.S.S.S.S.S.S.S.S.S.S.S.S.S.S.S.b q 2.I 1.^ u.n.S.M.w.j.x.n.S.S.S.S.S.S.A.n.j.u.7./ ` #.! U S.S.S.S.S.S.S.S.S.S.S.S.S.S.S.S.S.",
"S.S.S.S.S.S.S.S.S.S.S.S.S.S.S.S.j.O w.M  . .$.&.b.S.S.j.j.S.S.S.S.S.S.S.S.S.S.S.S.B.k.1./ :.V r.S.S.S.S.S.S.S.S.S.S.S.S.S.S.S.S.",
"S.S.S.S.S.S.S.S.S.S.S.S.S.S.S.S.q 6 p., :.! q.| y.A.S.A.Z.S.S.S.S.S.S.A.c.n.g.c.A.S.S.A.t.1.@.U S.S.S.S.S.S.S.S.S.S.S.S.S.S.S.S.",
"S.S.S.S.S.S.S.S.S.S.S.S.S.S.S.2.X w.L T [ ^ 2.$.,.n.S.S.S.S.S.S.S.S.S.A.s.w.&.~ ;.O.C.S.S.k.p.^ >.S.S.S.S.S.S.S.S.S.S.S.S.S.S.S.",
"S.S.S.S.S.S.S.S.S.S.S.S.S.S.S.; , g.# y.M %. .2.&.p.S.S.S.S.S.S.S.S.S.S.C.q.*.>.W ` ~ B S.S.Z.s./ n.S.S.S.S.S.S.S.S.S.S.S.S.S.S.",
"S.S.S.S.S.S.S.S.S.S.S.S.S.S.X.X 8.^ 6 0.p ,. .q.<.9.x.S.S.S.S.S.S.S.S.S.c.q.%.O.%.~ N >.n M S.S.g.,.S.S.S.S.S.S.S.S.S.S.S.S.S.S.",
"S.S.S.S.S.S.S.S.S.S.S.S.S.M.& 1 g.# <.^ U $.I &.2.1.8.Z.S.S.S.S.S.S.S.S.x.&.%.` ! ` #.x x $.3.r.S.a.x.S.S.S.S.S.S.S.S.S.S.S.S.S.",
"S.S.S.S.S.S.S.S.S.S.S.S.S.L O *.,.# j.; <.Q `  .9.X.,.j.A.S.S.S.S.S.S.A.p.#.@.#.#.( Z 3.q.b O 8 A.S.M.S.S.S.S.S.S.S.S.S.S.S.S.S.",
"S.S.S.S.S.S.S.S.S.S.S.S.g.# > g.; K w.& e.z :.` w...&.y.k.C.S.S.S.S.S.x.&.2.` +.o.-.%.w * H 1.e.C | S.S.S.S.S.S.S.S.S.S.S.S.S.S.",
"S.S.S.S.S.S.S.S.S.S.S.S.s + X.9.o w.T s 2.j X./ w.| | 0.y.a.j.x.S.S.C.u.$.@.>.o.) v h @.g.1.G $ + # k.S.S.S.S.S.S.S.S.S.S.S.S.S.",
"S.S.S.S.S.S.S.S.S.S.S.1.# : g.a - h.& &._ I | E 2._ ] 8.w.9.q.b.S.S.s.2.q.` ` U ` 4.1.U & # 6 X.2.d.{ 1.S.S.S.S.S.S.S.S.S.S.S.  ",
"  S.S.S.S.S.S.S.S.S.A.> # / 0.+ } w.+ w.s X.^ ^ @./ $.7.*.} w.S.S.B.w. .=.;._ #./ w , H &.r.e.:.E 5 # o @.S.S.S.S.S.S.S.S.S.S.  ",
"  S.S.S.S.S.S.S.S.S./ % - g.D @ i.P - g.& 1.k  ./ { #.2.U X.S.S.n.1.5.%.) _ W C _ 2.a.<./ 5 # + $ 3 S ! %.S.S.S.S.S.S.S.S.S.S.  ",
"  S.S.S.S.S.S.S.S.v.& & R r.$ d h.& E 8.& p.8 <.I O. ./  .S.S.M.q.@.[ $.3.] 5.$._ 5 & $ : F $.7.5.h.e.8.{ U S.S.S.S.S.S.S.S.S.  ",
"  S.S.S.S.S.S.S.S.m & - r.R + %.4.O 7.[ : 0.; w.K O.h x.A.S.n.y.e.2.O.^ / V g p H $.1.i.g.2.2. .D r - & $ O W S.S.S.S.S.S.S.S.  ",
"    S.S.S.S.S.S.r.$ - F r.- - g.D & i.y K <.: 2.* 0.k.S.S.x.1.| { $.{ +./ *.w.1.,. .D 4 & @ + # # - : y f z M S.S.S.S.S.S.S.    ",
"    S.S.S.S.S.S.q - & e.^ # D d.& u i.$ X.U # g.5.S.S.x.i.5.2./ ` ~ E ] I p , ; - 4 j I | &.<.1.2.5.e.r.w.9.$.&.S.S.S.S.S.S.    ",
"      S.S.S.S.*.$ 3 l g.- & 1.<.O ]  .. <.5.r.S.S.b.9.&.$.1.*.X.-.O.[ }  .*.9.e.e.0.2.1.1.&. .^ K l d r 3 - - @ 0.S.S.S.S.      ",
"      S.S.S.l.@ $ @ 1.I O & r., # 5.r.4.A.S.S.M.a.<.&.$._ ^ U T E ' W L j r 3 - & $ # @ @ @ @ # # & $ & & & & # $ n.S.S.S.      ",
"      S.S.S.1.V T / l.U [ 0.N.0.M.S.S.S.n.w.<.,.$. . .{ ~ W I M z z z z K L L I R R E T ^ T ^ T E T T ^ T ^ T E M e.S.S.S.      ",
"        S.S.S.S.S.S.S.S.S.S.S.S.S.S.S.S.A.A.A.A.S.S.S.S.S.S.S.S.S.S.S.S.S.S.S.S.S.S.S.S.S.S.S.S.S.S.S.S.S.S.S.S.S.S.S.S.        ",
"          S.S.S.S.S.S.S.S.S.S.S.S.S.S.S.S.S.S.S.S.S.S.S.S.S.S.S.S.S.S.S.S.S.S.S.S.S.S.S.S.S.S.S.S.S.S.S.S.S.S.S.S.S.S.          ",
"          S.S.S.S.S.S.S.S.S.S.S.S.S.S.S.S.S.S.S.S.S.S.S.S.S.S.S.S.S.S.S.S.S.S.S.S.S.S.S.S.S.S.S.S.S.S.S.S.S.S.S.S.S.S.          ",
"            S.S.S.S.S.S.S.S.S.S.S.S.S.S.S.S.S.S.S.S.S.S.S.S.S.S.S.S.S.S.S.S.S.S.S.S.S.S.S.S.S.S.S.S.S.S.S.S.S.S.S.S.            ",
"              S.S.S.S.S.S.S.S.S.S.S.S.S.S.S.S.S.S.S.S.S.S.S.S.S.S.S.S.S.S.S.S.S.S.S.S.S.S.S.S.S.S.S.S.S.S.S.S.S.S.              ",
"              S.S.S.S.S.S.S.S.S.S.S.S.S.S.S.S.S.S.S.S.S.S.S.S.S.S.S.S.S.S.S.S.S.S.S.S.S.S.S.S.S.S.S.S.S.S.S.S.S.S.              ",
"                S.S.S.S.S.S.S.S.S.S.S.S.S.S.S.S.S.S.S.S.S.S.S.S.S.S.S.S.S.S.S.S.S.S.S.S.S.S.S.S.S.S.S.S.S.S.S.S.                ",
"                  S.S.S.S.S.S.S.S.S.S.S.S.S.S.S.S.S.S.S.S.S.S.S.S.S.S.S.S.S.S.S.S.S.S.S.S.S.S.S.S.S.S.S.S.S.S.                  ",
"                    S.S.S.S.S.S.S.S.S.S.S.S.S.S.S.S.S.S.S.S.S.S.S.S.S.S.S.S.S.S.S.S.S.S.S.S.S.S.S.S.S.S.S.S.                    ",
"                      S.S.S.S.S.S.S.S.S.S.S.S.S.S.S.S.S.S.S.S.S.S.S.S.S.S.S.S.S.S.S.S.S.S.S.S.S.S.S.S.S.S.                      ",
"                          S.S.S.S.S.S.S.S.S.S.S.S.S.S.S.S.S.S.S.S.S.S.S.S.S.S.S.S.S.S.S.S.S.S.S.S.S.S.                          ",
"                            S.S.S.S.S.S.S.S.S.S.S.S.S.S.S.S.S.S.S.S.S.S.S.S.S.S.S.S.S.S.S.S.S.S.S.S.                            ",
"                                S.S.S.S.S.S.S.S.S.S.S.S.S.S.S.S.S.S.S.S.S.S.S.S.S.S.S.S.S.S.S.S.                                ",
"                                  S.S.S.S.S.S.S.S.S.S.S.S.S.S.S.S.S.S.S.S.S.S.S.S.S.S.S.S.S.S.                                  ",
"                                        S.S.S.S.S.S.S.S.S.S.S.S.S.S.S.S.S.S.S.S.S.S.S.S.                                        ",
"                                            S.S.S.S.S.S.S.S.S.S.S.S.S.S.S.S.S.S.S.S.                                            ",
"                                                    S.S.S.S.S.S.S.S.S.S.S.S.                                                    "
};
